<?xml version="1.0" encoding="utf-8"?>
<!-- Svg Vector Icons : http://www.onlinewebfonts.com/icon -->
<!DOCTYPE svg PUBLIC "-//W3C//DTD SVG 1.1//EN" "http://www.w3.org/Graphics/SVG/1.1/DTD/svg11.dtd">
<svg version="1.1" xmlns="http://www.w3.org/2000/svg" xmlns:xlink="http://www.w3.org/1999/xlink" x="0px" y="0px" viewBox="0 0 1000 1000" enable-background="new 0 0 1000 1000" xml:space="preserve">
<metadata> Svg Vector Icons : http://www.onlinewebfonts.com/icon </metadata>
<g><g><g><path d="M880.2,337.2c-0.4,1.1-0.9,2.1-1.4,3.2c0.6-1,1.2-1.9,1.7-2.8C880.4,337.5,880.2,337.3,880.2,337.2z"/><path d="M476.7,924.8c-16.9,21.9-43.5,34.5-72.9,34.5c-23.7,0-47.4-8.2-67-23.2L94.6,749.9c-5.2-4-10-8.5-14.4-13.2c7.2,24.3,21.7,46.2,42.7,62.3L338,964.3c21.6,16.6,48.1,25.8,74.5,25.8c34.1,0,65-14.8,84.8-40.6l414.1-539c16.8-21.8,21.3-53.3,21.5-79.4L476.7,924.8z"/><path d="M99.9,743l242.3,186.3c18,13.8,39.9,21.4,61.7,21.4c26.8,0,50.9-11.3,66.1-31.2l462.8-602.3c-0.1-2.3-0.2-4.6-0.4-6.8c-2.1-28.2-14.5-81.2-51.1-109.3L666.1,35.7C644.4,19.2,618,10,591.6,10c-30.1,0-51.3,10.8-65.3,21.6L76.3,617.1c-0.2,0.2-0.3,0.5-0.5,0.7c-8.1,18.7-11.8,41.1-6.1,68.3c3.4,18.7,4.3,23.6,5.5,30.1C81.7,726.3,89.9,735.4,99.9,743z M514.2,87.4C534,61.6,565,46.7,599,46.7c26.4,0,52.9,9.2,74.4,25.8l178.8,130.3c36.6,28.1,46.5,49.4,48.7,77.6c0.9,16.3-3.9,30.6-9,41.1l0.2,0.2l-1.1,1.8c-2.2,4.3-4.4,7.6-6.2,10.1l-13.3,21.2l-2.4,3.2c3.9-5.4,7.1-11.2,9.7-17.4c-0.9,1.7-1.8,3.4-3,5l-6.9,12.6L713.4,560.9l-22.3-17.1l-0.4,0.5L409.8,328.5l-48.4-36.9L514.2,87.4z"/></g></g><g></g><g></g><g></g><g></g><g></g><g></g><g></g><g></g><g></g><g></g><g></g><g></g><g></g><g></g><g></g></g>
</svg>